<svg width="547" height="98" viewBox="0 0 547 98" fill="none" xmlns="http://www.w3.org/2000/svg">
<g clip-path="url(#clip0_103_47)">
<rect width="547" height="98" fill="black"/>
<g clip-path="url(#clip1_103_47)">
<path d="M92 50.5006C92 28.1312 73.8677 10.0001 51.5008 10.0001C29.1327 10.0001 11 28.1312 11 50.5006C11 72.8666 29.1327 90.9991 51.5008 90.9991C73.8677 90.9991 92 72.8666 92 50.5006Z" fill="#1DB954"/>
<path d="M22.9847 50.9891C22.9847 51.53 22.5462 51.9686 22.0052 51.9686H20.264C19.7229 51.9686 19.2844 51.53 19.2844 50.9891V49.928C19.2844 49.3871 19.7229 48.9484 20.264 48.9484H22.0052C22.5462 48.9484 22.9847 49.3871 22.9847 49.928V50.9891Z" fill="#70A4D2"/>
<path d="M28.0455 53.5604C28.0455 54.1012 27.607 54.5399 27.066 54.5399H25.3247C24.7837 54.5399 24.3452 54.1012 24.3452 53.5604V47.4383C24.3452 46.8975 24.7837 46.4588 25.3247 46.4588H27.066C27.607 46.4588 28.0455 46.8975 28.0455 47.4383V53.5604Z" fill="#5B97CD"/>
<path d="M33.1066 54.8263C33.1066 55.3672 32.6681 55.8058 32.127 55.8058H30.3858C29.8448 55.8058 29.4062 55.3672 29.4062 54.8263V46.1738C29.4062 45.6329 29.8448 45.1943 30.3858 45.1943H32.127C32.6681 45.1943 33.1066 45.6329 33.1066 46.1738V54.8263Z" fill="#3275AF"/>
<path d="M38.1674 57.3567C38.1674 57.8976 37.7289 58.3362 37.1878 58.3362H35.4466C34.9055 58.3362 34.467 57.8976 34.467 57.3567V43.6433C34.467 43.1025 34.9055 42.6638 35.4466 42.6638H37.1878C37.7289 42.6638 38.1674 43.1025 38.1674 43.6433V57.3567Z" fill="#125794"/>
<path d="M43.2284 62.4176C43.2284 62.9584 42.7899 63.3971 42.2489 63.3971H40.5076C39.9666 63.3971 39.5281 62.9584 39.5281 62.4176V38.5824C39.5281 38.0416 39.9666 37.6029 40.5076 37.6029H42.2489C42.7899 37.6029 43.2284 38.0416 43.2284 38.5824V62.4176Z" fill="#0E4678"/>
<path d="M48.2892 64.948C48.2892 65.4889 47.8507 65.9275 47.3097 65.9275H45.5684C45.0274 65.9275 44.5889 65.4889 44.5889 64.948V36.052C44.5889 35.5111 45.0274 35.0724 45.5684 35.0724H47.3097C47.8507 35.0724 48.2892 35.5111 48.2892 36.052V64.948Z" fill="#0D3456"/>
<path d="M53.3502 72.5394C53.3502 73.0802 52.9117 73.5189 52.3707 73.5189H50.6294C50.0884 73.5189 49.6499 73.0802 49.6499 72.5394V28.4607C49.6499 27.9198 50.0884 27.4811 50.6294 27.4811H52.3707C52.9117 27.4811 53.3502 27.9198 53.3502 28.4607V72.5394Z" fill="#051E34"/>
<path d="M58.411 62.4176C58.411 62.9584 57.9725 63.3971 57.4315 63.3971H55.6902C55.1492 63.3971 54.7107 62.9584 54.7107 62.4176V38.5824C54.7107 38.0416 55.1492 37.6029 55.6902 37.6029H57.4315C57.9725 37.6029 58.411 38.0416 58.411 38.5824V62.4176Z" fill="#0D3456"/>
<path d="M63.4718 57.3567C63.4718 57.8976 63.0333 58.3362 62.4923 58.3362H60.751C60.21 58.3362 59.7715 57.8976 59.7715 57.3567V43.6433C59.7715 43.1025 60.21 42.6638 60.751 42.6638H62.4923C63.0333 42.6638 63.4718 43.1025 63.4718 43.6433V57.3567Z" fill="#0E4678"/>
<path d="M68.5328 59.8872C68.5328 60.428 68.0943 60.8667 67.5533 60.8667H65.812C65.271 60.8667 64.8325 60.428 64.8325 59.8872V41.1129C64.8325 40.572 65.271 40.1334 65.812 40.1334H67.5533C68.0943 40.1334 68.5328 40.572 68.5328 41.1129V59.8872Z" fill="#125794"/>
<path d="M73.5936 54.8256C73.5936 55.3665 73.1551 55.8051 72.6141 55.8051H70.8728C70.3318 55.8051 69.8933 55.3665 69.8933 54.8256V46.1731C69.8933 45.6323 70.3318 45.1936 70.8728 45.1936H72.6141C73.1551 45.1936 73.5936 45.6323 73.5936 46.1731V54.8256Z" fill="#3275AF"/>
<path d="M83.7155 51.0195C83.7155 51.5605 83.277 51.999 82.7359 51.999H80.9947C80.4536 51.999 80.0151 51.5605 80.0151 51.0195V49.9583C80.0151 49.4175 80.4536 48.9788 80.9947 48.9788H82.7359C83.277 48.9788 83.7155 49.4175 83.7155 49.9583V51.0195Z" fill="#70A4D2"/>
<path d="M78.6547 52.2958C78.6547 52.8367 78.2162 53.2753 77.6751 53.2753H75.9339C75.3928 53.2753 74.9543 52.8367 74.9543 52.2958V48.7042C74.9543 48.1633 75.3928 47.7247 75.9339 47.7247H77.6751C78.2162 47.7247 78.6547 48.1633 78.6547 48.7042V52.2958Z" fill="#5B97CD"/>
</g>
<path d="M135.156 54.125L137.406 49.875V73H135.156V54.125ZM139.656 45.5L141.906 41.25V73H139.656V45.5ZM144.156 37L146.406 32.7188V73H144.156V37ZM129.062 53.0625L127.781 50.7188L143.281 21.25H145.812L129.062 53.0625ZM126.469 48.1562L125.156 45.7812L138.156 21.25H140.719L126.469 48.1562ZM111.406 50.125L113.656 54.375V73H111.406V50.125ZM106.906 41.5625L109.156 45.8125V73H106.906V41.5625ZM102.406 33L104.656 37.2812V73H102.406V33ZM120.594 59.5H118.062L100.156 25.5312V73H97.9062V21.25H100.438L120.594 59.5ZM125.688 59.5H123.125L103 21.25H105.562L125.688 59.5ZM148.656 25.5312L130.75 59.5H128.188L108.094 21.25H110.625L129.5 57.125L148.344 21.25H150.906V73H148.656V25.5312ZM193.281 50.25V21.25H195.531V50.25C195.531 53.4167 194.281 56.125 191.781 58.375C189.281 60.625 186.281 61.75 182.781 61.75C179.281 61.75 176.281 60.625 173.781 58.375C171.281 56.125 170.031 53.4167 170.031 50.25V21.25H172.281V50.25C172.281 52.7917 173.302 54.9688 175.344 56.7812C177.406 58.5938 179.885 59.5 182.781 59.5C185.677 59.5 188.146 58.5938 190.188 56.7812C192.25 54.9688 193.281 52.7917 193.281 50.25ZM197.781 50.25V21.25H200.031V50.25C200.031 52.4167 199.573 54.4896 198.656 56.4688C197.74 58.4271 196.51 60.125 194.969 61.5625C193.427 63 191.594 64.1458 189.469 65C187.344 65.8333 185.115 66.25 182.781 66.25C180.448 66.25 178.219 65.8333 176.094 65C173.969 64.1458 172.135 63 170.594 61.5625C169.052 60.125 167.823 58.4271 166.906 56.4688C165.99 54.4896 165.531 52.4167 165.531 50.25V21.25H167.781V50.25C167.781 52.7292 168.448 55.0312 169.781 57.1562C171.135 59.2604 172.958 60.9271 175.25 62.1562C177.562 63.3854 180.073 64 182.781 64C185.49 64 187.99 63.3854 190.281 62.1562C192.594 60.9271 194.417 59.2604 195.75 57.1562C197.104 55.0312 197.781 52.7292 197.781 50.25ZM202.281 50.25V21.25H204.531V50.25C204.531 53.0208 203.948 55.6771 202.781 58.2188C201.635 60.7396 200.094 62.9167 198.156 64.75C196.219 66.5833 193.906 68.0417 191.219 69.125C188.531 70.2083 185.719 70.75 182.781 70.75C179.844 70.75 177.031 70.2083 174.344 69.125C171.656 68.0417 169.344 66.5833 167.406 64.75C165.469 62.9167 163.917 60.7396 162.75 58.2188C161.604 55.6771 161.031 53.0208 161.031 50.25V21.25H163.281V50.25C163.281 53.5417 164.156 56.5938 165.906 59.4062C167.656 62.1979 170.021 64.4167 173 66.0625C176 67.6875 179.26 68.5 182.781 68.5C186.302 68.5 189.552 67.6875 192.531 66.0625C195.531 64.4167 197.906 62.1979 199.656 59.4062C201.406 56.5938 202.281 53.5417 202.281 50.25ZM206.781 50.25V21.25H209.031V50.25C209.031 54.75 207.854 58.9271 205.5 62.7812C203.146 66.6146 199.948 69.6562 195.906 71.9062C191.885 74.1354 187.51 75.25 182.781 75.25C178.052 75.25 173.667 74.1354 169.625 71.9062C165.604 69.6562 162.417 66.6146 160.062 62.7812C157.708 58.9271 156.531 54.75 156.531 50.25V21.25H158.781V50.25C158.781 53.3125 159.417 56.25 160.688 59.0625C161.958 61.875 163.667 64.3021 165.812 66.3438C167.958 68.3646 170.51 69.9792 173.469 71.1875C176.448 72.3958 179.552 73 182.781 73C186.01 73 189.104 72.3958 192.062 71.1875C195.042 69.9792 197.604 68.3646 199.75 66.3438C201.896 64.3021 203.604 61.875 204.875 59.0625C206.146 56.25 206.781 53.3125 206.781 50.25ZM235.688 41.5H231.906C230.302 41.5 229.146 41.0938 228.438 40.2812C227.729 39.4479 227.375 38.3542 227.375 37C227.375 34 229.615 32.5 234.094 32.5C238.302 32.5 241.469 33.125 243.594 34.375L241.781 35.75C240.323 35.0833 237.76 34.75 234.094 34.75C232.302 34.75 231.094 34.9479 230.469 35.3438C229.865 35.7396 229.562 36.2917 229.562 37C229.562 37.7083 229.729 38.2604 230.062 38.6562C230.396 39.0521 231.01 39.25 231.906 39.25H235.781C238.594 39.25 241.125 39.7292 243.375 40.6875C245.646 41.6458 247.51 42.9583 248.969 44.625C250.427 46.2708 251.542 48.1771 252.312 50.3438C253.083 52.4896 253.469 54.7917 253.469 57.25C253.469 59.25 253.188 61.1458 252.625 62.9375C252.062 64.7292 251.208 66.375 250.062 67.875C248.938 69.375 247.573 70.6771 245.969 71.7812C244.385 72.8646 242.49 73.7083 240.281 74.3125C238.094 74.9375 235.719 75.25 233.156 75.25C229.135 75.25 225.365 74.6354 221.844 73.4062C218.344 72.1979 215.427 70.5 213.094 68.3125L214.906 66.9688C217.031 68.8854 219.688 70.375 222.875 71.4375C226.083 72.4792 229.51 73 233.156 73C236.01 73 238.583 72.5938 240.875 71.7812C243.188 70.9479 245.083 69.8125 246.562 68.375C248.062 66.9375 249.208 65.2708 250 63.375C250.812 61.4792 251.219 59.4375 251.219 57.25C251.219 54.3542 250.635 51.7396 249.469 49.4062C248.302 47.0521 246.521 45.1458 244.125 43.6875C241.75 42.2292 238.938 41.5 235.688 41.5ZM231.906 43.75H235.469C239.698 43.75 243 45.0417 245.375 47.625C247.771 50.2083 248.969 53.4167 248.969 57.25C248.969 61.1458 247.583 64.375 244.812 66.9375C242.042 69.4792 238.156 70.75 233.156 70.75C229.823 70.75 226.708 70.2917 223.812 69.375C220.917 68.4583 218.51 67.1667 216.594 65.5L218.344 64.0938C220.052 65.4896 222.198 66.5729 224.781 67.3438C227.385 68.1146 230.177 68.5 233.156 68.5C237.552 68.5 240.906 67.4479 243.219 65.3438C245.552 63.2396 246.719 60.5417 246.719 57.25C246.719 54 245.74 51.3125 243.781 49.1875C241.844 47.0625 239.062 46 235.438 46H231.906C228.865 46 226.583 45.1667 225.062 43.5C223.542 41.8333 222.781 39.6667 222.781 37C222.781 34.3333 223.719 32.1667 225.594 30.5C227.49 28.8333 230.323 28 234.094 28C236.74 28 239.198 28.3125 241.469 28.9375C243.74 29.5417 245.615 30.4167 247.094 31.5625L245.312 32.9375C242.708 31.1458 238.969 30.25 234.094 30.25C230.948 30.25 228.646 30.875 227.188 32.125C225.75 33.3542 225.031 34.9792 225.031 37C225.031 39.0417 225.562 40.6771 226.625 41.9062C227.708 43.1354 229.469 43.75 231.906 43.75ZM231.906 48.25H235.344C238.385 48.25 240.667 49.0938 242.188 50.7812C243.708 52.4688 244.469 54.625 244.469 57.25C244.469 59.9167 243.521 62.0833 241.625 63.75C239.75 65.4167 236.927 66.25 233.156 66.25C230.51 66.25 228.042 65.9479 225.75 65.3438C223.479 64.7188 221.604 63.8333 220.125 62.6875L221.906 61.3125C224.51 63.1042 228.26 64 233.156 64C236.302 64 238.594 63.3854 240.031 62.1562C241.49 60.9062 242.219 59.2708 242.219 57.25C242.219 55.2292 241.677 53.6042 240.594 52.375C239.51 51.125 237.75 50.5 235.312 50.5H231.906C227.635 50.5 224.292 49.2292 221.875 46.6875C219.479 44.125 218.281 40.8958 218.281 37C218.281 33.1042 219.667 29.8854 222.438 27.3438C225.208 24.7812 229.094 23.5 234.094 23.5C237.427 23.5 240.531 23.9583 243.406 24.875C246.302 25.7917 248.708 27.0833 250.625 28.75L248.875 30.1562C247.167 28.7604 245.021 27.6771 242.438 26.9062C239.854 26.1354 237.073 25.75 234.094 25.75C229.698 25.75 226.333 26.8021 224 28.9062C221.688 31.0104 220.531 33.7083 220.531 37C220.531 40.2708 221.51 42.9688 223.469 45.0938C225.427 47.1979 228.24 48.25 231.906 48.25ZM231.906 52.75H235.344C236.948 52.75 238.104 53.1667 238.812 54C239.521 54.8333 239.875 55.9167 239.875 57.25C239.875 60.25 237.635 61.75 233.156 61.75C228.927 61.75 225.75 61.125 223.625 59.875L225.438 58.5C226.896 59.1667 229.469 59.5 233.156 59.5C234.948 59.5 236.146 59.3021 236.75 58.9062C237.375 58.5104 237.688 57.9583 237.688 57.25C237.688 56.5625 237.51 56.0208 237.156 55.625C236.823 55.2083 236.198 55 235.281 55H231.906C229.031 55 226.427 54.5312 224.094 53.5938C221.781 52.6562 219.875 51.3646 218.375 49.7188C216.896 48.0729 215.76 46.1667 214.969 44C214.177 41.8333 213.781 39.5 213.781 37C213.781 35 214.062 33.1042 214.625 31.3125C215.188 29.5208 216.031 27.875 217.156 26.375C218.302 24.875 219.667 23.5833 221.25 22.5C222.854 21.3958 224.75 20.5417 226.938 19.9375C229.146 19.3125 231.531 19 234.094 19C238.115 19 241.875 19.6146 245.375 20.8438C248.875 22.0521 251.792 23.75 254.125 25.9375L252.312 27.2812C250.188 25.3646 247.531 23.8854 244.344 22.8438C241.156 21.7812 237.74 21.25 234.094 21.25C231.24 21.25 228.656 21.6667 226.344 22.5C224.052 23.3125 222.156 24.4375 220.656 25.875C219.177 27.3125 218.031 28.9792 217.219 30.875C216.427 32.7708 216.031 34.8125 216.031 37C216.031 39.9375 216.625 42.5833 217.812 44.9375C219 47.2917 220.812 49.1875 223.25 50.625C225.688 52.0417 228.573 52.75 231.906 52.75ZM271.969 21.25H274.219V73H271.969V21.25ZM267.469 21.25H269.719V73H267.469V21.25ZM262.969 21.25H265.219V73H262.969V21.25ZM258.469 21.25H260.719V73H258.469V21.25ZM319.219 38.9375L317.375 40.1562C316.25 38.4896 314.781 37.1771 312.969 36.2188C311.177 35.2396 309.229 34.75 307.125 34.75C303.708 34.75 300.792 35.9583 298.375 38.375C295.958 40.7917 294.75 43.7083 294.75 47.125C294.75 50.5417 295.958 53.4583 298.375 55.875C300.792 58.2917 303.708 59.5 307.125 59.5C309.229 59.5 311.177 59.0104 312.969 58.0312C314.781 57.0521 316.25 55.7292 317.375 54.0625L319.188 55.375C317.854 57.3333 316.125 58.8854 314 60.0312C311.875 61.1771 309.583 61.75 307.125 61.75C305.146 61.75 303.25 61.3646 301.438 60.5938C299.646 59.8229 298.094 58.7812 296.781 57.4688C295.469 56.1562 294.427 54.6042 293.656 52.8125C292.885 51 292.5 49.1042 292.5 47.125C292.5 45.1458 292.885 43.2604 293.656 41.4688C294.427 39.6562 295.469 38.0938 296.781 36.7812C298.094 35.4688 299.646 34.4271 301.438 33.6562C303.25 32.8854 305.146 32.5 307.125 32.5C309.604 32.5 311.906 33.0833 314.031 34.25C316.156 35.3958 317.885 36.9583 319.219 38.9375ZM322.938 36.375L321.062 37.5938C319.521 35.3438 317.521 33.5625 315.062 32.25C312.625 30.9167 309.979 30.25 307.125 30.25C304.062 30.25 301.24 31.0104 298.656 32.5312C296.073 34.0312 294.021 36.0729 292.5 38.6562C291 41.2396 290.25 44.0625 290.25 47.125C290.25 50.1875 291 53.0104 292.5 55.5938C294.021 58.1771 296.073 60.2292 298.656 61.75C301.24 63.25 304.062 64 307.125 64C309.979 64 312.635 63.3333 315.094 62C317.552 60.6667 319.552 58.8646 321.094 56.5938L322.938 57.875C321.188 60.4583 318.917 62.5 316.125 64C313.354 65.5 310.354 66.25 307.125 66.25C303.667 66.25 300.469 65.3958 297.531 63.6875C294.594 61.9792 292.271 59.6562 290.562 56.7188C288.854 53.7812 288 50.5833 288 47.125C288 43.6667 288.854 40.4688 290.562 37.5312C292.271 34.5938 294.594 32.2708 297.531 30.5625C300.469 28.8542 303.667 28 307.125 28C310.354 28 313.354 28.75 316.125 30.25C318.917 31.75 321.188 33.7917 322.938 36.375ZM326.688 33.875L324.812 35.0938C322.854 32.2188 320.312 29.9479 317.188 28.2812C314.083 26.5938 310.729 25.75 307.125 25.75C304.229 25.75 301.458 26.3125 298.812 27.4375C296.167 28.5625 293.885 30.0833 291.969 32C290.073 33.8958 288.562 36.1667 287.438 38.8125C286.312 41.4583 285.75 44.2292 285.75 47.125C285.75 50.0208 286.312 52.7917 287.438 55.4375C288.562 58.0833 290.073 60.3646 291.969 62.2812C293.885 64.1771 296.167 65.6875 298.812 66.8125C301.458 67.9375 304.229 68.5 307.125 68.5C310.75 68.5 314.115 67.6562 317.219 65.9688C320.323 64.2812 322.854 62 324.812 59.125L326.625 60.4688C324.458 63.6354 321.656 66.1458 318.219 68C314.802 69.8333 311.104 70.75 307.125 70.75C302.854 70.75 298.906 69.6979 295.281 67.5938C291.656 65.4688 288.781 62.5938 286.656 58.9688C284.552 55.3438 283.5 51.3958 283.5 47.125C283.5 42.8542 284.552 38.9062 286.656 35.2812C288.781 31.6562 291.656 28.7917 295.281 26.6875C298.906 24.5625 302.854 23.5 307.125 23.5C311.125 23.5 314.844 24.4375 318.281 26.3125C321.719 28.1667 324.521 30.6875 326.688 33.875ZM330.375 31.3125L328.5 32.5312C326.125 29.0521 323.052 26.3021 319.281 24.2812C315.531 22.2604 311.479 21.25 307.125 21.25C303.625 21.25 300.271 21.9375 297.062 23.3125C293.875 24.6667 291.125 26.5 288.812 28.8125C286.5 31.125 284.656 33.8854 283.281 37.0938C281.927 40.2812 281.25 43.625 281.25 47.125C281.25 50.625 281.927 53.9792 283.281 57.1875C284.656 60.375 286.5 63.125 288.812 65.4375C291.125 67.75 293.875 69.5938 297.062 70.9688C300.271 72.3229 303.625 73 307.125 73C311.479 73 315.542 71.9792 319.312 69.9375C323.083 67.8958 326.156 65.1354 328.531 61.6562L330.344 63.0312C327.76 66.7812 324.427 69.7604 320.344 71.9688C316.26 74.1562 311.854 75.25 307.125 75.25C303.312 75.25 299.667 74.5 296.188 73C292.729 71.5208 289.74 69.5312 287.219 67.0312C284.719 64.5104 282.719 61.5208 281.219 58.0625C279.74 54.5833 279 50.9375 279 47.125C279 43.3125 279.74 39.6771 281.219 36.2188C282.719 32.7396 284.719 29.75 287.219 27.25C289.74 24.7292 292.729 22.7292 296.188 21.25C299.667 19.75 303.312 19 307.125 19C311.875 19 316.292 20.1042 320.375 22.3125C324.458 24.5208 327.792 27.5208 330.375 31.3125ZM369.094 54.9688C369.094 54.1562 368.844 53.6146 368.344 53.3438C367.865 53.0729 367.156 52.9375 366.219 52.9375H351.719V50.6875H366.219C369.635 50.6875 371.344 52.1146 371.344 54.9688C371.344 56.5729 370.875 57.7292 369.938 58.4375C369 59.1458 367.76 59.5 366.219 59.5H351.719V57.25H366.219C368.135 57.25 369.094 56.4896 369.094 54.9688ZM350.469 73H348.219V34.75H366.219C367.635 34.75 368.844 35.1875 369.844 36.0625C370.844 36.9167 371.344 37.9896 371.344 39.2812C371.344 40.9896 370.875 42.2292 369.938 43C369 43.75 367.76 44.125 366.219 44.125H351.719V41.875H366.219C368.135 41.875 369.094 41.0104 369.094 39.2812C369.094 38.5729 368.823 38.0208 368.281 37.625C367.74 37.2083 367.052 37 366.219 37H350.469V73ZM351.719 46.375H366.219C368.281 46.375 370.021 45.7604 371.438 44.5312C372.875 43.2812 373.594 41.5312 373.594 39.2812C373.594 37.4688 372.844 35.8854 371.344 34.5312C369.865 33.1771 368.156 32.5 366.219 32.5H345.969V73H343.719V30.25H366.219C368.781 30.25 371.021 31.1562 372.938 32.9688C374.875 34.7604 375.844 36.8646 375.844 39.2812C375.844 41.1771 375.396 42.8333 374.5 44.25C373.625 45.6667 372.438 46.7604 370.938 47.5312C374.208 48.6979 375.844 51.0729 375.844 54.6562C375.844 57.4896 374.906 59.7604 373.031 61.4688C371.156 63.1562 368.885 64 366.219 64H351.719V61.75H366.219C368.281 61.75 370.021 61.1354 371.438 59.9062C372.875 58.6562 373.594 56.9062 373.594 54.6562C373.594 53.1354 373.052 51.7917 371.969 50.625C370.885 49.4583 369.292 48.7812 367.188 48.5938C366.979 48.6146 366.656 48.625 366.219 48.625H351.719V46.375ZM380.344 39.2812C380.344 42.1979 379.312 44.8333 377.25 47.1875C379.312 49.4792 380.344 51.9688 380.344 54.6562C380.344 57.2604 379.688 59.6354 378.375 61.7812C377.083 63.9062 375.354 65.5625 373.188 66.75C371.042 67.9167 368.719 68.5 366.219 68.5H351.719V66.25H366.219C369.469 66.25 372.26 65.1667 374.594 63C376.927 60.8125 378.094 58.0312 378.094 54.6562C378.094 53.4479 377.781 52.1146 377.156 50.6562C376.552 49.1771 375.708 48.0521 374.625 47.2812C376.938 45.1146 378.094 42.4479 378.094 39.2812C378.094 36.2396 376.906 33.6042 374.531 31.375C372.156 29.125 369.385 28 366.219 28H341.469V73H339.219V25.75H366.219C368.698 25.75 371.021 26.3646 373.188 27.5938C375.375 28.8021 377.115 30.4583 378.406 32.5625C379.698 34.6458 380.344 36.8854 380.344 39.2812ZM379.812 47.3125C381.667 44.8333 382.594 42.1562 382.594 39.2812C382.594 36.4688 381.844 33.8542 380.344 31.4375C378.865 29 376.865 27.0729 374.344 25.6562C371.823 24.2188 369.115 23.5 366.219 23.5H336.969V73H334.719V21.25H366.219C369.51 21.25 372.583 22.0625 375.438 23.6875C378.312 25.3125 380.594 27.5208 382.281 30.3125C383.99 33.0833 384.844 36.0729 384.844 39.2812C384.844 42.3438 383.979 45.0312 382.25 47.3438C383.979 49.7396 384.844 52.1771 384.844 54.6562C384.844 57.4479 384.344 60.0104 383.344 62.3438C382.344 64.6562 380.99 66.5833 379.281 68.125C377.594 69.6667 375.625 70.8646 373.375 71.7188C371.125 72.5729 368.74 73 366.219 73H351.719V70.75H366.219C368.406 70.75 370.5 70.3438 372.5 69.5312C374.5 68.6979 376.24 67.5729 377.719 66.1562C379.198 64.7396 380.375 63.0312 381.25 61.0312C382.146 59.0312 382.594 56.9062 382.594 54.6562C382.594 53.6562 382.354 52.4583 381.875 51.0625C381.417 49.6458 380.729 48.3958 379.812 47.3125ZM412.25 57.8125L413.156 55.5625H420.844L421.75 57.8125H412.25ZM410.5 62.3125L411.375 60.0625H422.594L423.562 62.3125H410.5ZM408.75 66.8125L409.625 64.5625H424.375L425.312 66.8125H408.75ZM390.469 73H388.031L408.5 21.25H410.938L431.375 73H428.969L409.719 24.2812L390.469 73ZM410 29.625L411.281 32.5L395.281 73H392.875L410 29.625ZM412.5 35.5625L413.688 38.6562L400.156 73H397.719L412.5 35.5625ZM414.875 41.75L416.062 44.9062L404.969 73H402.562L414.875 41.75ZM445.906 73H443.469L423.031 21.25H425.438L445.906 73ZM420.594 21.25L441.062 73H438.656L418.188 21.25H420.594ZM415.75 21.25L436.219 73H433.781L413.344 21.25H415.75ZM470.75 41.5H466.969C465.365 41.5 464.208 41.0938 463.5 40.2812C462.792 39.4479 462.438 38.3542 462.438 37C462.438 34 464.677 32.5 469.156 32.5C473.365 32.5 476.531 33.125 478.656 34.375L476.844 35.75C475.385 35.0833 472.823 34.75 469.156 34.75C467.365 34.75 466.156 34.9479 465.531 35.3438C464.927 35.7396 464.625 36.2917 464.625 37C464.625 37.7083 464.792 38.2604 465.125 38.6562C465.458 39.0521 466.073 39.25 466.969 39.25H470.844C473.656 39.25 476.188 39.7292 478.438 40.6875C480.708 41.6458 482.573 42.9583 484.031 44.625C485.49 46.2708 486.604 48.1771 487.375 50.3438C488.146 52.4896 488.531 54.7917 488.531 57.25C488.531 59.25 488.25 61.1458 487.688 62.9375C487.125 64.7292 486.271 66.375 485.125 67.875C484 69.375 482.635 70.6771 481.031 71.7812C479.448 72.8646 477.552 73.7083 475.344 74.3125C473.156 74.9375 470.781 75.25 468.219 75.25C464.198 75.25 460.427 74.6354 456.906 73.4062C453.406 72.1979 450.49 70.5 448.156 68.3125L449.969 66.9688C452.094 68.8854 454.75 70.375 457.938 71.4375C461.146 72.4792 464.573 73 468.219 73C471.073 73 473.646 72.5938 475.938 71.7812C478.25 70.9479 480.146 69.8125 481.625 68.375C483.125 66.9375 484.271 65.2708 485.062 63.375C485.875 61.4792 486.281 59.4375 486.281 57.25C486.281 54.3542 485.698 51.7396 484.531 49.4062C483.365 47.0521 481.583 45.1458 479.188 43.6875C476.812 42.2292 474 41.5 470.75 41.5ZM466.969 43.75H470.531C474.76 43.75 478.062 45.0417 480.438 47.625C482.833 50.2083 484.031 53.4167 484.031 57.25C484.031 61.1458 482.646 64.375 479.875 66.9375C477.104 69.4792 473.219 70.75 468.219 70.75C464.885 70.75 461.771 70.2917 458.875 69.375C455.979 68.4583 453.573 67.1667 451.656 65.5L453.406 64.0938C455.115 65.4896 457.26 66.5729 459.844 67.3438C462.448 68.1146 465.24 68.5 468.219 68.5C472.615 68.5 475.969 67.4479 478.281 65.3438C480.615 63.2396 481.781 60.5417 481.781 57.25C481.781 54 480.802 51.3125 478.844 49.1875C476.906 47.0625 474.125 46 470.5 46H466.969C463.927 46 461.646 45.1667 460.125 43.5C458.604 41.8333 457.844 39.6667 457.844 37C457.844 34.3333 458.781 32.1667 460.656 30.5C462.552 28.8333 465.385 28 469.156 28C471.802 28 474.26 28.3125 476.531 28.9375C478.802 29.5417 480.677 30.4167 482.156 31.5625L480.375 32.9375C477.771 31.1458 474.031 30.25 469.156 30.25C466.01 30.25 463.708 30.875 462.25 32.125C460.812 33.3542 460.094 34.9792 460.094 37C460.094 39.0417 460.625 40.6771 461.688 41.9062C462.771 43.1354 464.531 43.75 466.969 43.75ZM466.969 48.25H470.406C473.448 48.25 475.729 49.0938 477.25 50.7812C478.771 52.4688 479.531 54.625 479.531 57.25C479.531 59.9167 478.583 62.0833 476.688 63.75C474.812 65.4167 471.99 66.25 468.219 66.25C465.573 66.25 463.104 65.9479 460.812 65.3438C458.542 64.7188 456.667 63.8333 455.188 62.6875L456.969 61.3125C459.573 63.1042 463.323 64 468.219 64C471.365 64 473.656 63.3854 475.094 62.1562C476.552 60.9062 477.281 59.2708 477.281 57.25C477.281 55.2292 476.74 53.6042 475.656 52.375C474.573 51.125 472.812 50.5 470.375 50.5H466.969C462.698 50.5 459.354 49.2292 456.938 46.6875C454.542 44.125 453.344 40.8958 453.344 37C453.344 33.1042 454.729 29.8854 457.5 27.3438C460.271 24.7812 464.156 23.5 469.156 23.5C472.49 23.5 475.594 23.9583 478.469 24.875C481.365 25.7917 483.771 27.0833 485.688 28.75L483.938 30.1562C482.229 28.7604 480.083 27.6771 477.5 26.9062C474.917 26.1354 472.135 25.75 469.156 25.75C464.76 25.75 461.396 26.8021 459.062 28.9062C456.75 31.0104 455.594 33.7083 455.594 37C455.594 40.2708 456.573 42.9688 458.531 45.0938C460.49 47.1979 463.302 48.25 466.969 48.25ZM466.969 52.75H470.406C472.01 52.75 473.167 53.1667 473.875 54C474.583 54.8333 474.938 55.9167 474.938 57.25C474.938 60.25 472.698 61.75 468.219 61.75C463.99 61.75 460.812 61.125 458.688 59.875L460.5 58.5C461.958 59.1667 464.531 59.5 468.219 59.5C470.01 59.5 471.208 59.3021 471.812 58.9062C472.438 58.5104 472.75 57.9583 472.75 57.25C472.75 56.5625 472.573 56.0208 472.219 55.625C471.885 55.2083 471.26 55 470.344 55H466.969C464.094 55 461.49 54.5312 459.156 53.5938C456.844 52.6562 454.938 51.3646 453.438 49.7188C451.958 48.0729 450.823 46.1667 450.031 44C449.24 41.8333 448.844 39.5 448.844 37C448.844 35 449.125 33.1042 449.688 31.3125C450.25 29.5208 451.094 27.875 452.219 26.375C453.365 24.875 454.729 23.5833 456.312 22.5C457.917 21.3958 459.812 20.5417 462 19.9375C464.208 19.3125 466.594 19 469.156 19C473.177 19 476.938 19.6146 480.438 20.8438C483.938 22.0521 486.854 23.75 489.188 25.9375L487.375 27.2812C485.25 25.3646 482.594 23.8854 479.406 22.8438C476.219 21.7812 472.802 21.25 469.156 21.25C466.302 21.25 463.719 21.6667 461.406 22.5C459.115 23.3125 457.219 24.4375 455.719 25.875C454.24 27.3125 453.094 28.9792 452.281 30.875C451.49 32.7708 451.094 34.8125 451.094 37C451.094 39.9375 451.688 42.5833 452.875 44.9375C454.062 47.2917 455.875 49.1875 458.312 50.625C460.75 52.0417 463.635 52.75 466.969 52.75ZM504.781 73H502.531V21.25H504.781V73ZM500.281 73H498.031V21.25H500.281V73ZM495.781 73H493.531V21.25H495.781V73ZM509.281 61.75H533.219V64H509.281V66.25H533.219V68.5H509.281V70.75H533.219V73H507.031V21.25H533.219V23.5H509.281V25.75H533.219V28H509.281V30.25H533.219V32.5H509.281V41.5H521.562V43.75H509.281V46H521.562V48.25H509.281V50.5H521.562V52.75H509.281V61.75Z" fill="#1DB954"/>
</g>
<defs>
<clipPath id="clip0_103_47">
<rect width="547" height="98" fill="white"/>
</clipPath>
<clipPath id="clip1_103_47">
<rect width="81" height="81" fill="white" transform="translate(11 10)"/>
</clipPath>
</defs>
</svg>
