<svg width="187" height="50" viewBox="0 0 187 50" fill="none" xmlns="http://www.w3.org/2000/svg">
<rect width="187" height="50" fill="white"/>
<g clip-path="url(#clip0_103_47)">
<path d="M44 25.5004C44 14.1776 34.8219 5.00012 23.5004 5.00012C12.1783 5.00012 3 14.1776 3 25.5004C3 36.8214 12.1783 45.9996 23.5004 45.9996C34.8219 45.9996 44 36.8214 44 25.5004Z" fill="#1DB954"/>
<path d="M9.06636 25.7476C9.06636 26.0214 8.84441 26.2434 8.57055 26.2434H7.68917C7.41532 26.2434 7.19336 26.0214 7.19336 25.7476V25.2105C7.19336 24.9367 7.41532 24.7147 7.68917 24.7147H8.57055C8.84441 24.7147 9.06636 24.9367 9.06636 25.2105V25.7476Z" fill="#70A4D2"/>
<path d="M11.6281 27.0491C11.6281 27.3229 11.4062 27.5449 11.1323 27.5449H10.2509C9.97708 27.5449 9.75513 27.3229 9.75513 27.0491V23.9503C9.75513 23.6765 9.97708 23.4545 10.2509 23.4545H11.1323C11.4062 23.4545 11.6281 23.6765 11.6281 23.9503V27.0491Z" fill="#5B97CD"/>
<path d="M14.1897 27.6898C14.1897 27.9636 13.9677 28.1856 13.6938 28.1856H12.8125C12.5386 28.1856 12.3167 27.9636 12.3167 27.6898V23.3101C12.3167 23.0364 12.5386 22.8143 12.8125 22.8143H13.6938C13.9677 22.8143 14.1897 23.0364 14.1897 23.3101V27.6898Z" fill="#3275AF"/>
<path d="M16.7514 28.9707C16.7514 29.2444 16.5295 29.4665 16.2556 29.4665H15.3742C15.1004 29.4665 14.8784 29.2444 14.8784 28.9707V22.0293C14.8784 21.7555 15.1004 21.5335 15.3742 21.5335H16.2556C16.5295 21.5335 16.7514 21.7555 16.7514 22.0293V28.9707Z" fill="#125794"/>
<path d="M19.3132 31.5323C19.3132 31.8061 19.0912 32.0281 18.8174 32.0281H17.936C17.6621 32.0281 17.4402 31.8061 17.4402 31.5323V19.4676C17.4402 19.1938 17.6621 18.9718 17.936 18.9718H18.8174C19.0912 18.9718 19.3132 19.1938 19.3132 19.4676V31.5323Z" fill="#0E4678"/>
<path d="M21.875 32.8132C21.875 33.0869 21.653 33.309 21.3791 33.309H20.4978C20.2239 33.309 20.002 33.0869 20.002 32.8132V18.1868C20.002 17.913 20.2239 17.691 20.4978 17.691H21.3791C21.653 17.691 21.875 17.913 21.875 18.1868V32.8132Z" fill="#0D3456"/>
<path d="M24.4365 36.6557C24.4365 36.9295 24.2145 37.1515 23.9407 37.1515H23.0593C22.7854 37.1515 22.5635 36.9295 22.5635 36.6557V14.3443C22.5635 14.0705 22.7854 13.8484 23.0593 13.8484H23.9407C24.2145 13.8484 24.4365 14.0705 24.4365 14.3443V36.6557Z" fill="#051E34"/>
<path d="M26.9982 31.5324C26.9982 31.8061 26.7763 32.0282 26.5024 32.0282H25.6211C25.3472 32.0282 25.1252 31.8061 25.1252 31.5324V19.4677C25.1252 19.1939 25.3472 18.9719 25.6211 18.9719H26.5024C26.7763 18.9719 26.9982 19.1939 26.9982 19.4677V31.5324Z" fill="#0D3456"/>
<path d="M29.56 28.9707C29.56 29.2445 29.3381 29.4665 29.0642 29.4665H28.1828C27.909 29.4665 27.687 29.2445 27.687 28.9707V22.0294C27.687 21.7556 27.909 21.5336 28.1828 21.5336H29.0642C29.3381 21.5336 29.56 21.7556 29.56 22.0294V28.9707Z" fill="#0E4678"/>
<path d="M32.1215 30.2515C32.1215 30.5253 31.8996 30.7473 31.6257 30.7473H30.7443C30.4705 30.7473 30.2485 30.5253 30.2485 30.2515V20.7485C30.2485 20.4747 30.4705 20.2527 30.7443 20.2527H31.6257C31.8996 20.2527 32.1215 20.4747 32.1215 20.7485V30.2515Z" fill="#125794"/>
<path d="M34.6833 27.6895C34.6833 27.9633 34.4613 28.1853 34.1875 28.1853H33.3061C33.0323 28.1853 32.8103 27.9633 32.8103 27.6895V23.3098C32.8103 23.0361 33.0323 22.814 33.3061 22.814H34.1875C34.4613 22.814 34.6833 23.0361 34.6833 23.3098V27.6895Z" fill="#3275AF"/>
<path d="M39.8066 25.763C39.8066 26.0368 39.5846 26.2588 39.3108 26.2588H38.4294C38.1556 26.2588 37.9336 26.0368 37.9336 25.763V25.2259C37.9336 24.9521 38.1556 24.73 38.4294 24.73H39.3108C39.5846 24.73 39.8066 24.9521 39.8066 25.2259V25.763Z" fill="#70A4D2"/>
<path d="M37.2448 26.409C37.2448 26.6828 37.0229 26.9048 36.749 26.9048H35.8676C35.5938 26.9048 35.3718 26.6828 35.3718 26.409V24.591C35.3718 24.3173 35.5938 24.0952 35.8676 24.0952H36.749C37.0229 24.0952 37.2448 24.3173 37.2448 24.591V26.409Z" fill="#5B97CD"/>
</g>
<path d="M65.0586 27.9219L65.9023 26.3281V35H65.0586V27.9219ZM66.7461 24.6875L67.5898 23.0938V35H66.7461V24.6875ZM68.4336 21.5L69.2773 19.8945V35H68.4336V21.5ZM62.7734 27.5234L62.293 26.6445L68.1055 15.5938H69.0547L62.7734 27.5234ZM61.8008 25.6836L61.3086 24.793L66.1836 15.5938H67.1445L61.8008 25.6836ZM56.1523 26.4219L56.9961 28.0156V35H56.1523V26.4219ZM54.4648 23.2109L55.3086 24.8047V35H54.4648V23.2109ZM52.7773 20L53.6211 21.6055V35H52.7773V20ZM59.5977 29.9375H58.6484L51.9336 17.1992V35H51.0898V15.5938H52.0391L59.5977 29.9375ZM61.5078 29.9375H60.5469L53 15.5938H53.9609L61.5078 29.9375ZM70.1211 17.1992L63.4062 29.9375H62.4453L54.9102 15.5938H55.8594L62.9375 29.0469L70.0039 15.5938H70.9648V35H70.1211V17.1992ZM86.8555 26.4688V15.5938H87.6992V26.4688C87.6992 27.6562 87.2305 28.6719 86.293 29.5156C85.3555 30.3594 84.2305 30.7812 82.918 30.7812C81.6055 30.7812 80.4805 30.3594 79.543 29.5156C78.6055 28.6719 78.1367 27.6562 78.1367 26.4688V15.5938H78.9805V26.4688C78.9805 27.4219 79.3633 28.2383 80.1289 28.918C80.9023 29.5977 81.832 29.9375 82.918 29.9375C84.0039 29.9375 84.9297 29.5977 85.6953 28.918C86.4688 28.2383 86.8555 27.4219 86.8555 26.4688ZM88.543 26.4688V15.5938H89.3867V26.4688C89.3867 27.2812 89.2148 28.0586 88.8711 28.8008C88.5273 29.5352 88.0664 30.1719 87.4883 30.7109C86.9102 31.25 86.2227 31.6797 85.4258 32C84.6289 32.3125 83.793 32.4688 82.918 32.4688C82.043 32.4688 81.207 32.3125 80.4102 32C79.6133 31.6797 78.9258 31.25 78.3477 30.7109C77.7695 30.1719 77.3086 29.5352 76.9648 28.8008C76.6211 28.0586 76.4492 27.2812 76.4492 26.4688V15.5938H77.293V26.4688C77.293 27.3984 77.543 28.2617 78.043 29.0586C78.5508 29.8477 79.2344 30.4727 80.0938 30.9336C80.9609 31.3945 81.9023 31.625 82.918 31.625C83.9336 31.625 84.8711 31.3945 85.7305 30.9336C86.5977 30.4727 87.2812 29.8477 87.7812 29.0586C88.2891 28.2617 88.543 27.3984 88.543 26.4688ZM90.2305 26.4688V15.5938H91.0742V26.4688C91.0742 27.5078 90.8555 28.5039 90.418 29.457C89.9883 30.4023 89.4102 31.2188 88.6836 31.9062C87.957 32.5938 87.0898 33.1406 86.082 33.5469C85.0742 33.9531 84.0195 34.1562 82.918 34.1562C81.8164 34.1562 80.7617 33.9531 79.7539 33.5469C78.7461 33.1406 77.8789 32.5938 77.1523 31.9062C76.4258 31.2188 75.8438 30.4023 75.4062 29.457C74.9766 28.5039 74.7617 27.5078 74.7617 26.4688V15.5938H75.6055V26.4688C75.6055 27.7031 75.9336 28.8477 76.5898 29.9023C77.2461 30.9492 78.1328 31.7812 79.25 32.3984C80.375 33.0078 81.5977 33.3125 82.918 33.3125C84.2383 33.3125 85.457 33.0078 86.5742 32.3984C87.6992 31.7812 88.5898 30.9492 89.2461 29.9023C89.9023 28.8477 90.2305 27.7031 90.2305 26.4688ZM91.918 26.4688V15.5938H92.7617V26.4688C92.7617 28.1562 92.3203 29.7227 91.4375 31.168C90.5547 32.6055 89.3555 33.7461 87.8398 34.5898C86.332 35.4258 84.6914 35.8438 82.918 35.8438C81.1445 35.8438 79.5 35.4258 77.9844 34.5898C76.4766 33.7461 75.2812 32.6055 74.3984 31.168C73.5156 29.7227 73.0742 28.1562 73.0742 26.4688V15.5938H73.918V26.4688C73.918 27.6172 74.1562 28.7188 74.6328 29.7734C75.1094 30.8281 75.75 31.7383 76.5547 32.5039C77.3594 33.2617 78.3164 33.8672 79.4258 34.3203C80.543 34.7734 81.707 35 82.918 35C84.1289 35 85.2891 34.7734 86.3984 34.3203C87.5156 33.8672 88.4766 33.2617 89.2812 32.5039C90.0859 31.7383 90.7266 30.8281 91.2031 29.7734C91.6797 28.7188 91.918 27.6172 91.918 26.4688ZM102.758 23.1875H101.34C100.738 23.1875 100.305 23.0352 100.039 22.7305C99.7734 22.418 99.6406 22.0078 99.6406 21.5C99.6406 20.375 100.48 19.8125 102.16 19.8125C103.738 19.8125 104.926 20.0469 105.723 20.5156L105.043 21.0312C104.496 20.7812 103.535 20.6562 102.16 20.6562C101.488 20.6562 101.035 20.7305 100.801 20.8789C100.574 21.0273 100.461 21.2344 100.461 21.5C100.461 21.7656 100.523 21.9727 100.648 22.1211C100.773 22.2695 101.004 22.3438 101.34 22.3438H102.793C103.848 22.3438 104.797 22.5234 105.641 22.8828C106.492 23.2422 107.191 23.7344 107.738 24.3594C108.285 24.9766 108.703 25.6914 108.992 26.5039C109.281 27.3086 109.426 28.1719 109.426 29.0938C109.426 29.8438 109.32 30.5547 109.109 31.2266C108.898 31.8984 108.578 32.5156 108.148 33.0781C107.727 33.6406 107.215 34.1289 106.613 34.543C106.02 34.9492 105.309 35.2656 104.48 35.4922C103.66 35.7266 102.77 35.8438 101.809 35.8438C100.301 35.8438 98.8867 35.6133 97.5664 35.1523C96.2539 34.6992 95.1602 34.0625 94.2852 33.2422L94.9648 32.7383C95.7617 33.457 96.7578 34.0156 97.9531 34.4141C99.1562 34.8047 100.441 35 101.809 35C102.879 35 103.844 34.8477 104.703 34.543C105.57 34.2305 106.281 33.8047 106.836 33.2656C107.398 32.7266 107.828 32.1016 108.125 31.3906C108.43 30.6797 108.582 29.9141 108.582 29.0938C108.582 28.0078 108.363 27.0273 107.926 26.1523C107.488 25.2695 106.82 24.5547 105.922 24.0078C105.031 23.4609 103.977 23.1875 102.758 23.1875ZM101.34 24.0312H102.676C104.262 24.0312 105.5 24.5156 106.391 25.4844C107.289 26.4531 107.738 27.6562 107.738 29.0938C107.738 30.5547 107.219 31.7656 106.18 32.7266C105.141 33.6797 103.684 34.1562 101.809 34.1562C100.559 34.1562 99.3906 33.9844 98.3047 33.6406C97.2188 33.2969 96.3164 32.8125 95.5977 32.1875L96.2539 31.6602C96.8945 32.1836 97.6992 32.5898 98.668 32.8789C99.6445 33.168 100.691 33.3125 101.809 33.3125C103.457 33.3125 104.715 32.918 105.582 32.1289C106.457 31.3398 106.895 30.3281 106.895 29.0938C106.895 27.875 106.527 26.8672 105.793 26.0703C105.066 25.2734 104.023 24.875 102.664 24.875H101.34C100.199 24.875 99.3438 24.5625 98.7734 23.9375C98.2031 23.3125 97.918 22.5 97.918 21.5C97.918 20.5 98.2695 19.6875 98.9727 19.0625C99.6836 18.4375 100.746 18.125 102.16 18.125C103.152 18.125 104.074 18.2422 104.926 18.4766C105.777 18.7031 106.48 19.0312 107.035 19.4609L106.367 19.9766C105.391 19.3047 103.988 18.9688 102.16 18.9688C100.98 18.9688 100.117 19.2031 99.5703 19.6719C99.0312 20.1328 98.7617 20.7422 98.7617 21.5C98.7617 22.2656 98.9609 22.8789 99.3594 23.3398C99.7656 23.8008 100.426 24.0312 101.34 24.0312ZM101.34 25.7188H102.629C103.77 25.7188 104.625 26.0352 105.195 26.668C105.766 27.3008 106.051 28.1094 106.051 29.0938C106.051 30.0938 105.695 30.9062 104.984 31.5312C104.281 32.1562 103.223 32.4688 101.809 32.4688C100.816 32.4688 99.8906 32.3555 99.0312 32.1289C98.1797 31.8945 97.4766 31.5625 96.9219 31.1328L97.5898 30.6172C98.5664 31.2891 99.9727 31.625 101.809 31.625C102.988 31.625 103.848 31.3945 104.387 30.9336C104.934 30.4648 105.207 29.8516 105.207 29.0938C105.207 28.3359 105.004 27.7266 104.598 27.2656C104.191 26.7969 103.531 26.5625 102.617 26.5625H101.34C99.7383 26.5625 98.4844 26.0859 97.5781 25.1328C96.6797 24.1719 96.2305 22.9609 96.2305 21.5C96.2305 20.0391 96.75 18.832 97.7891 17.8789C98.8281 16.918 100.285 16.4375 102.16 16.4375C103.41 16.4375 104.574 16.6094 105.652 16.9531C106.738 17.2969 107.641 17.7812 108.359 18.4062L107.703 18.9336C107.062 18.4102 106.258 18.0039 105.289 17.7148C104.32 17.4258 103.277 17.2812 102.16 17.2812C100.512 17.2812 99.25 17.6758 98.375 18.4648C97.5078 19.2539 97.0742 20.2656 97.0742 21.5C97.0742 22.7266 97.4414 23.7383 98.1758 24.5352C98.9102 25.3242 99.9648 25.7188 101.34 25.7188ZM101.34 27.4062H102.629C103.23 27.4062 103.664 27.5625 103.93 27.875C104.195 28.1875 104.328 28.5938 104.328 29.0938C104.328 30.2188 103.488 30.7812 101.809 30.7812C100.223 30.7812 99.0312 30.5469 98.2344 30.0781L98.9141 29.5625C99.4609 29.8125 100.426 29.9375 101.809 29.9375C102.48 29.9375 102.93 29.8633 103.156 29.7148C103.391 29.5664 103.508 29.3594 103.508 29.0938C103.508 28.8359 103.441 28.6328 103.309 28.4844C103.184 28.3281 102.949 28.25 102.605 28.25H101.34C100.262 28.25 99.2852 28.0742 98.4102 27.7227C97.543 27.3711 96.8281 26.8867 96.2656 26.2695C95.7109 25.6523 95.2852 24.9375 94.9883 24.125C94.6914 23.3125 94.543 22.4375 94.543 21.5C94.543 20.75 94.6484 20.0391 94.8594 19.3672C95.0703 18.6953 95.3867 18.0781 95.8086 17.5156C96.2383 16.9531 96.75 16.4688 97.3438 16.0625C97.9453 15.6484 98.6562 15.3281 99.4766 15.1016C100.305 14.8672 101.199 14.75 102.16 14.75C103.668 14.75 105.078 14.9805 106.391 15.4414C107.703 15.8945 108.797 16.5312 109.672 17.3516L108.992 17.8555C108.195 17.1367 107.199 16.582 106.004 16.1914C104.809 15.793 103.527 15.5938 102.16 15.5938C101.09 15.5938 100.121 15.75 99.2539 16.0625C98.3945 16.3672 97.6836 16.7891 97.1211 17.3281C96.5664 17.8672 96.1367 18.4922 95.832 19.2031C95.5352 19.9141 95.3867 20.6797 95.3867 21.5C95.3867 22.6016 95.6094 23.5938 96.0547 24.4766C96.5 25.3594 97.1797 26.0703 98.0938 26.6094C99.0078 27.1406 100.09 27.4062 101.34 27.4062ZM116.363 15.5938H117.207V35H116.363V15.5938ZM114.676 15.5938H115.52V35H114.676V15.5938ZM112.988 15.5938H113.832V35H112.988V15.5938ZM111.301 15.5938H112.145V35H111.301V15.5938ZM134.082 22.2266L133.391 22.6836C132.969 22.0586 132.418 21.5664 131.738 21.207C131.066 20.8398 130.336 20.6562 129.547 20.6562C128.266 20.6562 127.172 21.1094 126.266 22.0156C125.359 22.9219 124.906 24.0156 124.906 25.2969C124.906 26.5781 125.359 27.6719 126.266 28.5781C127.172 29.4844 128.266 29.9375 129.547 29.9375C130.336 29.9375 131.066 29.7539 131.738 29.3867C132.418 29.0195 132.969 28.5234 133.391 27.8984L134.07 28.3906C133.57 29.125 132.922 29.707 132.125 30.1367C131.328 30.5664 130.469 30.7812 129.547 30.7812C128.805 30.7812 128.094 30.6367 127.414 30.3477C126.742 30.0586 126.16 29.668 125.668 29.1758C125.176 28.6836 124.785 28.1016 124.496 27.4297C124.207 26.75 124.062 26.0391 124.062 25.2969C124.062 24.5547 124.207 23.8477 124.496 23.1758C124.785 22.4961 125.176 21.9102 125.668 21.418C126.16 20.9258 126.742 20.5352 127.414 20.2461C128.094 19.957 128.805 19.8125 129.547 19.8125C130.477 19.8125 131.34 20.0312 132.137 20.4688C132.934 20.8984 133.582 21.4844 134.082 22.2266ZM135.477 21.2656L134.773 21.7227C134.195 20.8789 133.445 20.2109 132.523 19.7188C131.609 19.2188 130.617 18.9688 129.547 18.9688C128.398 18.9688 127.34 19.2539 126.371 19.8242C125.402 20.3867 124.633 21.1523 124.062 22.1211C123.5 23.0898 123.219 24.1484 123.219 25.2969C123.219 26.4453 123.5 27.5039 124.062 28.4727C124.633 29.4414 125.402 30.2109 126.371 30.7812C127.34 31.3438 128.398 31.625 129.547 31.625C130.617 31.625 131.613 31.375 132.535 30.875C133.457 30.375 134.207 29.6992 134.785 28.8477L135.477 29.3281C134.82 30.2969 133.969 31.0625 132.922 31.625C131.883 32.1875 130.758 32.4688 129.547 32.4688C128.25 32.4688 127.051 32.1484 125.949 31.5078C124.848 30.8672 123.977 29.9961 123.336 28.8945C122.695 27.793 122.375 26.5938 122.375 25.2969C122.375 24 122.695 22.8008 123.336 21.6992C123.977 20.5977 124.848 19.7266 125.949 19.0859C127.051 18.4453 128.25 18.125 129.547 18.125C130.758 18.125 131.883 18.4062 132.922 18.9688C133.969 19.5312 134.82 20.2969 135.477 21.2656ZM136.883 20.3281L136.18 20.7852C135.445 19.707 134.492 18.8555 133.32 18.2305C132.156 17.5977 130.898 17.2812 129.547 17.2812C128.461 17.2812 127.422 17.4922 126.43 17.9141C125.438 18.3359 124.582 18.9062 123.863 19.625C123.152 20.3359 122.586 21.1875 122.164 22.1797C121.742 23.1719 121.531 24.2109 121.531 25.2969C121.531 26.3828 121.742 27.4219 122.164 28.4141C122.586 29.4062 123.152 30.2617 123.863 30.9805C124.582 31.6914 125.438 32.2578 126.43 32.6797C127.422 33.1016 128.461 33.3125 129.547 33.3125C130.906 33.3125 132.168 32.9961 133.332 32.3633C134.496 31.7305 135.445 30.875 136.18 29.7969L136.859 30.3008C136.047 31.4883 134.996 32.4297 133.707 33.125C132.426 33.8125 131.039 34.1562 129.547 34.1562C127.945 34.1562 126.465 33.7617 125.105 32.9727C123.746 32.1758 122.668 31.0977 121.871 29.7383C121.082 28.3789 120.688 26.8984 120.688 25.2969C120.688 23.6953 121.082 22.2148 121.871 20.8555C122.668 19.4961 123.746 18.4219 125.105 17.6328C126.465 16.8359 127.945 16.4375 129.547 16.4375C131.047 16.4375 132.441 16.7891 133.73 17.4922C135.02 18.1875 136.07 19.1328 136.883 20.3281ZM138.266 19.3672L137.562 19.8242C136.672 18.5195 135.52 17.4883 134.105 16.7305C132.699 15.9727 131.18 15.5938 129.547 15.5938C128.234 15.5938 126.977 15.8516 125.773 16.3672C124.578 16.875 123.547 17.5625 122.68 18.4297C121.812 19.2969 121.121 20.332 120.605 21.5352C120.098 22.7305 119.844 23.9844 119.844 25.2969C119.844 26.6094 120.098 27.8672 120.605 29.0703C121.121 30.2656 121.812 31.2969 122.68 32.1641C123.547 33.0312 124.578 33.7227 125.773 34.2383C126.977 34.7461 128.234 35 129.547 35C131.18 35 132.703 34.6172 134.117 33.8516C135.531 33.0859 136.684 32.0508 137.574 30.7461L138.254 31.2617C137.285 32.668 136.035 33.7852 134.504 34.6133C132.973 35.4336 131.32 35.8438 129.547 35.8438C128.117 35.8438 126.75 35.5625 125.445 35C124.148 34.4453 123.027 33.6992 122.082 32.7617C121.145 31.8164 120.395 30.6953 119.832 29.3984C119.277 28.0938 119 26.7266 119 25.2969C119 23.8672 119.277 22.5039 119.832 21.207C120.395 19.9023 121.145 18.7812 122.082 17.8438C123.027 16.8984 124.148 16.1484 125.445 15.5938C126.75 15.0312 128.117 14.75 129.547 14.75C131.328 14.75 132.984 15.1641 134.516 15.9922C136.047 16.8203 137.297 17.9453 138.266 19.3672ZM139.895 15.5938H140.738V35H139.895V15.5938ZM144.957 15.5938H145.801V30.7812H152.551V31.625H145.801V32.4688H152.551V33.3125H145.801V34.1562H152.551V35H144.957V15.5938ZM143.27 15.5938H144.113V35H143.27V15.5938ZM141.582 15.5938H142.426V35H141.582V15.5938ZM159.488 15.5938H160.332V35H159.488V15.5938ZM157.801 15.5938H158.645V35H157.801V15.5938ZM156.113 15.5938H156.957V35H156.113V15.5938ZM154.426 15.5938H155.27V35H154.426V15.5938ZM175.449 28.2383C175.449 27.9336 175.355 27.7305 175.168 27.6289C174.988 27.5273 174.723 27.4766 174.371 27.4766H168.934V26.6328H174.371C175.652 26.6328 176.293 27.168 176.293 28.2383C176.293 28.8398 176.117 29.2734 175.766 29.5391C175.414 29.8047 174.949 29.9375 174.371 29.9375H168.934V29.0938H174.371C175.09 29.0938 175.449 28.8086 175.449 28.2383ZM168.465 35H167.621V20.6562H174.371C174.902 20.6562 175.355 20.8203 175.73 21.1484C176.105 21.4688 176.293 21.8711 176.293 22.3555C176.293 22.9961 176.117 23.4609 175.766 23.75C175.414 24.0312 174.949 24.1719 174.371 24.1719H168.934V23.3281H174.371C175.09 23.3281 175.449 23.0039 175.449 22.3555C175.449 22.0898 175.348 21.8828 175.145 21.7344C174.941 21.5781 174.684 21.5 174.371 21.5H168.465V35ZM168.934 25.0156H174.371C175.145 25.0156 175.797 24.7852 176.328 24.3242C176.867 23.8555 177.137 23.1992 177.137 22.3555C177.137 21.6758 176.855 21.082 176.293 20.5742C175.738 20.0664 175.098 19.8125 174.371 19.8125H166.777V35H165.934V18.9688H174.371C175.332 18.9688 176.172 19.3086 176.891 19.9883C177.617 20.6602 177.98 21.4492 177.98 22.3555C177.98 23.0664 177.812 23.6875 177.477 24.2188C177.148 24.75 176.703 25.1602 176.141 25.4492C177.367 25.8867 177.98 26.7773 177.98 28.1211C177.98 29.1836 177.629 30.0352 176.926 30.6758C176.223 31.3086 175.371 31.625 174.371 31.625H168.934V30.7812H174.371C175.145 30.7812 175.797 30.5508 176.328 30.0898C176.867 29.6211 177.137 28.9648 177.137 28.1211C177.137 27.5508 176.934 27.0469 176.527 26.6094C176.121 26.1719 175.523 25.918 174.734 25.8477C174.656 25.8555 174.535 25.8594 174.371 25.8594H168.934V25.0156ZM179.668 22.3555C179.668 23.4492 179.281 24.4375 178.508 25.3203C179.281 26.1797 179.668 27.1133 179.668 28.1211C179.668 29.0977 179.422 29.9883 178.93 30.793C178.445 31.5898 177.797 32.2109 176.984 32.6562C176.18 33.0938 175.309 33.3125 174.371 33.3125H168.934V32.4688H174.371C175.59 32.4688 176.637 32.0625 177.512 31.25C178.387 30.4297 178.824 29.3867 178.824 28.1211C178.824 27.668 178.707 27.168 178.473 26.6211C178.246 26.0664 177.93 25.6445 177.523 25.3555C178.391 24.543 178.824 23.543 178.824 22.3555C178.824 21.2148 178.379 20.2266 177.488 19.3906C176.598 18.5469 175.559 18.125 174.371 18.125H165.09V35H164.246V17.2812H174.371C175.301 17.2812 176.172 17.5117 176.984 17.9727C177.805 18.4258 178.457 19.0469 178.941 19.8359C179.426 20.6172 179.668 21.457 179.668 22.3555ZM179.469 25.3672C180.164 24.4375 180.512 23.4336 180.512 22.3555C180.512 21.3008 180.23 20.3203 179.668 19.4141C179.113 18.5 178.363 17.7773 177.418 17.2461C176.473 16.707 175.457 16.4375 174.371 16.4375H163.402V35H162.559V15.5938H174.371C175.605 15.5938 176.758 15.8984 177.828 16.5078C178.906 17.1172 179.762 17.9453 180.395 18.9922C181.035 20.0312 181.355 21.1523 181.355 22.3555C181.355 23.5039 181.031 24.5117 180.383 25.3789C181.031 26.2773 181.355 27.1914 181.355 28.1211C181.355 29.168 181.168 30.1289 180.793 31.0039C180.418 31.8711 179.91 32.5938 179.27 33.1719C178.637 33.75 177.898 34.1992 177.055 34.5195C176.211 34.8398 175.316 35 174.371 35H168.934V34.1562H174.371C175.191 34.1562 175.977 34.0039 176.727 33.6992C177.477 33.3867 178.129 32.9648 178.684 32.4336C179.238 31.9023 179.68 31.2617 180.008 30.5117C180.344 29.7617 180.512 28.9648 180.512 28.1211C180.512 27.7461 180.422 27.2969 180.242 26.7734C180.07 26.2422 179.812 25.7734 179.469 25.3672Z" fill="#1DB954"/>
<defs>
<clipPath id="clip0_103_47">
<rect width="41" height="41" fill="white" transform="translate(3 5)"/>
</clipPath>
</defs>
</svg>
