<svg width="460" height="113" viewBox="0 0 460 113" fill="none" xmlns="http://www.w3.org/2000/svg">
<g clip-path="url(#clip0_103_47)">
<rect width="460" height="113" fill="black"/>
<g clip-path="url(#clip1_103_47)">
<path d="M91 56.5006C91 34.1312 72.8677 16.0001 50.5008 16.0001C28.1327 16.0001 10 34.1312 10 56.5006C10 78.8666 28.1327 96.9991 50.5008 96.9991C72.8677 96.9991 91 78.8666 91 56.5006Z" fill="#1DB954"/>
<path d="M21.9847 56.9891C21.9847 57.53 21.5462 57.9686 21.0052 57.9686H19.264C18.7229 57.9686 18.2844 57.53 18.2844 56.9891V55.928C18.2844 55.3871 18.7229 54.9484 19.264 54.9484H21.0052C21.5462 54.9484 21.9847 55.3871 21.9847 55.928V56.9891Z" fill="#70A4D2"/>
<path d="M27.0455 59.5604C27.0455 60.1012 26.607 60.5399 26.066 60.5399H24.3247C23.7837 60.5399 23.3452 60.1012 23.3452 59.5604V53.4383C23.3452 52.8975 23.7837 52.4588 24.3247 52.4588H26.066C26.607 52.4588 27.0455 52.8975 27.0455 53.4383V59.5604Z" fill="#5B97CD"/>
<path d="M32.1066 60.8263C32.1066 61.3672 31.6681 61.8058 31.127 61.8058H29.3858C28.8448 61.8058 28.4062 61.3672 28.4062 60.8263V52.1738C28.4062 51.6329 28.8448 51.1943 29.3858 51.1943H31.127C31.6681 51.1943 32.1066 51.6329 32.1066 52.1738V60.8263Z" fill="#3275AF"/>
<path d="M37.1674 63.3567C37.1674 63.8976 36.7289 64.3362 36.1878 64.3362H34.4466C33.9055 64.3362 33.467 63.8976 33.467 63.3567V49.6433C33.467 49.1025 33.9055 48.6638 34.4466 48.6638H36.1878C36.7289 48.6638 37.1674 49.1025 37.1674 49.6433V63.3567Z" fill="#125794"/>
<path d="M42.2284 68.4176C42.2284 68.9584 41.7899 69.3971 41.2489 69.3971H39.5076C38.9666 69.3971 38.5281 68.9584 38.5281 68.4176V44.5824C38.5281 44.0416 38.9666 43.6029 39.5076 43.6029H41.2489C41.7899 43.6029 42.2284 44.0416 42.2284 44.5824V68.4176Z" fill="#0E4678"/>
<path d="M47.2892 70.948C47.2892 71.4889 46.8507 71.9275 46.3097 71.9275H44.5684C44.0274 71.9275 43.5889 71.4889 43.5889 70.948V42.052C43.5889 41.5111 44.0274 41.0724 44.5684 41.0724H46.3097C46.8507 41.0724 47.2892 41.5111 47.2892 42.052V70.948Z" fill="#0D3456"/>
<path d="M52.3502 78.5394C52.3502 79.0802 51.9117 79.5189 51.3707 79.5189H49.6294C49.0884 79.5189 48.6499 79.0802 48.6499 78.5394V34.4607C48.6499 33.9198 49.0884 33.4811 49.6294 33.4811H51.3707C51.9117 33.4811 52.3502 33.9198 52.3502 34.4607V78.5394Z" fill="#051E34"/>
<path d="M57.411 68.4176C57.411 68.9584 56.9725 69.3971 56.4315 69.3971H54.6902C54.1492 69.3971 53.7107 68.9584 53.7107 68.4176V44.5824C53.7107 44.0416 54.1492 43.6029 54.6902 43.6029H56.4315C56.9725 43.6029 57.411 44.0416 57.411 44.5824V68.4176Z" fill="#0D3456"/>
<path d="M62.4718 63.3567C62.4718 63.8976 62.0333 64.3362 61.4923 64.3362H59.751C59.21 64.3362 58.7715 63.8976 58.7715 63.3567V49.6433C58.7715 49.1025 59.21 48.6638 59.751 48.6638H61.4923C62.0333 48.6638 62.4718 49.1025 62.4718 49.6433V63.3567Z" fill="#0E4678"/>
<path d="M67.5328 65.8872C67.5328 66.428 67.0943 66.8667 66.5533 66.8667H64.812C64.271 66.8667 63.8325 66.428 63.8325 65.8872V47.1129C63.8325 46.572 64.271 46.1334 64.812 46.1334H66.5533C67.0943 46.1334 67.5328 46.572 67.5328 47.1129V65.8872Z" fill="#125794"/>
<path d="M72.5936 60.8256C72.5936 61.3665 72.1551 61.8051 71.6141 61.8051H69.8728C69.3318 61.8051 68.8933 61.3665 68.8933 60.8256V52.1731C68.8933 51.6323 69.3318 51.1936 69.8728 51.1936H71.6141C72.1551 51.1936 72.5936 51.6323 72.5936 52.1731V60.8256Z" fill="#3275AF"/>
<path d="M82.7155 57.0195C82.7155 57.5605 82.277 57.999 81.7359 57.999H79.9947C79.4536 57.999 79.0151 57.5605 79.0151 57.0195V55.9583C79.0151 55.4175 79.4536 54.9788 79.9947 54.9788H81.7359C82.277 54.9788 82.7155 55.4175 82.7155 55.9583V57.0195Z" fill="#70A4D2"/>
<path d="M77.6547 58.2958C77.6547 58.8367 77.2162 59.2753 76.6751 59.2753H74.9339C74.3928 59.2753 73.9543 58.8367 73.9543 58.2958V54.7042C73.9543 54.1633 74.3928 53.7247 74.9339 53.7247H76.6751C77.2162 53.7247 77.6547 54.1633 77.6547 54.7042V58.2958Z" fill="#5B97CD"/>
</g>
<path d="M135.156 60.125L137.406 55.875V79H135.156V60.125ZM139.656 51.5L141.906 47.25V79H139.656V51.5ZM144.156 43L146.406 38.7188V79H144.156V43ZM129.062 59.0625L127.781 56.7188L143.281 27.25H145.812L129.062 59.0625ZM126.469 54.1562L125.156 51.7812L138.156 27.25H140.719L126.469 54.1562ZM111.406 56.125L113.656 60.375V79H111.406V56.125ZM106.906 47.5625L109.156 51.8125V79H106.906V47.5625ZM102.406 39L104.656 43.2812V79H102.406V39ZM120.594 65.5H118.062L100.156 31.5312V79H97.9062V27.25H100.438L120.594 65.5ZM125.688 65.5H123.125L103 27.25H105.562L125.688 65.5ZM148.656 31.5312L130.75 65.5H128.188L108.094 27.25H110.625L129.5 63.125L148.344 27.25H150.906V79H148.656V31.5312ZM193.281 56.25V27.25H195.531V56.25C195.531 59.4167 194.281 62.125 191.781 64.375C189.281 66.625 186.281 67.75 182.781 67.75C179.281 67.75 176.281 66.625 173.781 64.375C171.281 62.125 170.031 59.4167 170.031 56.25V27.25H172.281V56.25C172.281 58.7917 173.302 60.9688 175.344 62.7812C177.406 64.5938 179.885 65.5 182.781 65.5C185.677 65.5 188.146 64.5938 190.188 62.7812C192.25 60.9688 193.281 58.7917 193.281 56.25ZM197.781 56.25V27.25H200.031V56.25C200.031 58.4167 199.573 60.4896 198.656 62.4688C197.74 64.4271 196.51 66.125 194.969 67.5625C193.427 69 191.594 70.1458 189.469 71C187.344 71.8333 185.115 72.25 182.781 72.25C180.448 72.25 178.219 71.8333 176.094 71C173.969 70.1458 172.135 69 170.594 67.5625C169.052 66.125 167.823 64.4271 166.906 62.4688C165.99 60.4896 165.531 58.4167 165.531 56.25V27.25H167.781V56.25C167.781 58.7292 168.448 61.0312 169.781 63.1562C171.135 65.2604 172.958 66.9271 175.25 68.1562C177.562 69.3854 180.073 70 182.781 70C185.49 70 187.99 69.3854 190.281 68.1562C192.594 66.9271 194.417 65.2604 195.75 63.1562C197.104 61.0312 197.781 58.7292 197.781 56.25ZM202.281 56.25V27.25H204.531V56.25C204.531 59.0208 203.948 61.6771 202.781 64.2188C201.635 66.7396 200.094 68.9167 198.156 70.75C196.219 72.5833 193.906 74.0417 191.219 75.125C188.531 76.2083 185.719 76.75 182.781 76.75C179.844 76.75 177.031 76.2083 174.344 75.125C171.656 74.0417 169.344 72.5833 167.406 70.75C165.469 68.9167 163.917 66.7396 162.75 64.2188C161.604 61.6771 161.031 59.0208 161.031 56.25V27.25H163.281V56.25C163.281 59.5417 164.156 62.5938 165.906 65.4062C167.656 68.1979 170.021 70.4167 173 72.0625C176 73.6875 179.26 74.5 182.781 74.5C186.302 74.5 189.552 73.6875 192.531 72.0625C195.531 70.4167 197.906 68.1979 199.656 65.4062C201.406 62.5938 202.281 59.5417 202.281 56.25ZM206.781 56.25V27.25H209.031V56.25C209.031 60.75 207.854 64.9271 205.5 68.7812C203.146 72.6146 199.948 75.6562 195.906 77.9062C191.885 80.1354 187.51 81.25 182.781 81.25C178.052 81.25 173.667 80.1354 169.625 77.9062C165.604 75.6562 162.417 72.6146 160.062 68.7812C157.708 64.9271 156.531 60.75 156.531 56.25V27.25H158.781V56.25C158.781 59.3125 159.417 62.25 160.688 65.0625C161.958 67.875 163.667 70.3021 165.812 72.3438C167.958 74.3646 170.51 75.9792 173.469 77.1875C176.448 78.3958 179.552 79 182.781 79C186.01 79 189.104 78.3958 192.062 77.1875C195.042 75.9792 197.604 74.3646 199.75 72.3438C201.896 70.3021 203.604 67.875 204.875 65.0625C206.146 62.25 206.781 59.3125 206.781 56.25ZM235.688 47.5H231.906C230.302 47.5 229.146 47.0938 228.438 46.2812C227.729 45.4479 227.375 44.3542 227.375 43C227.375 40 229.615 38.5 234.094 38.5C238.302 38.5 241.469 39.125 243.594 40.375L241.781 41.75C240.323 41.0833 237.76 40.75 234.094 40.75C232.302 40.75 231.094 40.9479 230.469 41.3438C229.865 41.7396 229.562 42.2917 229.562 43C229.562 43.7083 229.729 44.2604 230.062 44.6562C230.396 45.0521 231.01 45.25 231.906 45.25H235.781C238.594 45.25 241.125 45.7292 243.375 46.6875C245.646 47.6458 247.51 48.9583 248.969 50.625C250.427 52.2708 251.542 54.1771 252.312 56.3438C253.083 58.4896 253.469 60.7917 253.469 63.25C253.469 65.25 253.188 67.1458 252.625 68.9375C252.062 70.7292 251.208 72.375 250.062 73.875C248.938 75.375 247.573 76.6771 245.969 77.7812C244.385 78.8646 242.49 79.7083 240.281 80.3125C238.094 80.9375 235.719 81.25 233.156 81.25C229.135 81.25 225.365 80.6354 221.844 79.4062C218.344 78.1979 215.427 76.5 213.094 74.3125L214.906 72.9688C217.031 74.8854 219.688 76.375 222.875 77.4375C226.083 78.4792 229.51 79 233.156 79C236.01 79 238.583 78.5938 240.875 77.7812C243.188 76.9479 245.083 75.8125 246.562 74.375C248.062 72.9375 249.208 71.2708 250 69.375C250.812 67.4792 251.219 65.4375 251.219 63.25C251.219 60.3542 250.635 57.7396 249.469 55.4062C248.302 53.0521 246.521 51.1458 244.125 49.6875C241.75 48.2292 238.938 47.5 235.688 47.5ZM231.906 49.75H235.469C239.698 49.75 243 51.0417 245.375 53.625C247.771 56.2083 248.969 59.4167 248.969 63.25C248.969 67.1458 247.583 70.375 244.812 72.9375C242.042 75.4792 238.156 76.75 233.156 76.75C229.823 76.75 226.708 76.2917 223.812 75.375C220.917 74.4583 218.51 73.1667 216.594 71.5L218.344 70.0938C220.052 71.4896 222.198 72.5729 224.781 73.3438C227.385 74.1146 230.177 74.5 233.156 74.5C237.552 74.5 240.906 73.4479 243.219 71.3438C245.552 69.2396 246.719 66.5417 246.719 63.25C246.719 60 245.74 57.3125 243.781 55.1875C241.844 53.0625 239.062 52 235.438 52H231.906C228.865 52 226.583 51.1667 225.062 49.5C223.542 47.8333 222.781 45.6667 222.781 43C222.781 40.3333 223.719 38.1667 225.594 36.5C227.49 34.8333 230.323 34 234.094 34C236.74 34 239.198 34.3125 241.469 34.9375C243.74 35.5417 245.615 36.4167 247.094 37.5625L245.312 38.9375C242.708 37.1458 238.969 36.25 234.094 36.25C230.948 36.25 228.646 36.875 227.188 38.125C225.75 39.3542 225.031 40.9792 225.031 43C225.031 45.0417 225.562 46.6771 226.625 47.9062C227.708 49.1354 229.469 49.75 231.906 49.75ZM231.906 54.25H235.344C238.385 54.25 240.667 55.0938 242.188 56.7812C243.708 58.4688 244.469 60.625 244.469 63.25C244.469 65.9167 243.521 68.0833 241.625 69.75C239.75 71.4167 236.927 72.25 233.156 72.25C230.51 72.25 228.042 71.9479 225.75 71.3438C223.479 70.7188 221.604 69.8333 220.125 68.6875L221.906 67.3125C224.51 69.1042 228.26 70 233.156 70C236.302 70 238.594 69.3854 240.031 68.1562C241.49 66.9062 242.219 65.2708 242.219 63.25C242.219 61.2292 241.677 59.6042 240.594 58.375C239.51 57.125 237.75 56.5 235.312 56.5H231.906C227.635 56.5 224.292 55.2292 221.875 52.6875C219.479 50.125 218.281 46.8958 218.281 43C218.281 39.1042 219.667 35.8854 222.438 33.3438C225.208 30.7812 229.094 29.5 234.094 29.5C237.427 29.5 240.531 29.9583 243.406 30.875C246.302 31.7917 248.708 33.0833 250.625 34.75L248.875 36.1562C247.167 34.7604 245.021 33.6771 242.438 32.9062C239.854 32.1354 237.073 31.75 234.094 31.75C229.698 31.75 226.333 32.8021 224 34.9062C221.688 37.0104 220.531 39.7083 220.531 43C220.531 46.2708 221.51 48.9688 223.469 51.0938C225.427 53.1979 228.24 54.25 231.906 54.25ZM231.906 58.75H235.344C236.948 58.75 238.104 59.1667 238.812 60C239.521 60.8333 239.875 61.9167 239.875 63.25C239.875 66.25 237.635 67.75 233.156 67.75C228.927 67.75 225.75 67.125 223.625 65.875L225.438 64.5C226.896 65.1667 229.469 65.5 233.156 65.5C234.948 65.5 236.146 65.3021 236.75 64.9062C237.375 64.5104 237.688 63.9583 237.688 63.25C237.688 62.5625 237.51 62.0208 237.156 61.625C236.823 61.2083 236.198 61 235.281 61H231.906C229.031 61 226.427 60.5312 224.094 59.5938C221.781 58.6562 219.875 57.3646 218.375 55.7188C216.896 54.0729 215.76 52.1667 214.969 50C214.177 47.8333 213.781 45.5 213.781 43C213.781 41 214.062 39.1042 214.625 37.3125C215.188 35.5208 216.031 33.875 217.156 32.375C218.302 30.875 219.667 29.5833 221.25 28.5C222.854 27.3958 224.75 26.5417 226.938 25.9375C229.146 25.3125 231.531 25 234.094 25C238.115 25 241.875 25.6146 245.375 26.8438C248.875 28.0521 251.792 29.75 254.125 31.9375L252.312 33.2812C250.188 31.3646 247.531 29.8854 244.344 28.8438C241.156 27.7812 237.74 27.25 234.094 27.25C231.24 27.25 228.656 27.6667 226.344 28.5C224.052 29.3125 222.156 30.4375 220.656 31.875C219.177 33.3125 218.031 34.9792 217.219 36.875C216.427 38.7708 216.031 40.8125 216.031 43C216.031 45.9375 216.625 48.5833 217.812 50.9375C219 53.2917 220.812 55.1875 223.25 56.625C225.688 58.0417 228.573 58.75 231.906 58.75ZM271.969 27.25H274.219V79H271.969V27.25ZM267.469 27.25H269.719V79H267.469V27.25ZM262.969 27.25H265.219V79H262.969V27.25ZM258.469 27.25H260.719V79H258.469V27.25ZM319.219 44.9375L317.375 46.1562C316.25 44.4896 314.781 43.1771 312.969 42.2188C311.177 41.2396 309.229 40.75 307.125 40.75C303.708 40.75 300.792 41.9583 298.375 44.375C295.958 46.7917 294.75 49.7083 294.75 53.125C294.75 56.5417 295.958 59.4583 298.375 61.875C300.792 64.2917 303.708 65.5 307.125 65.5C309.229 65.5 311.177 65.0104 312.969 64.0312C314.781 63.0521 316.25 61.7292 317.375 60.0625L319.188 61.375C317.854 63.3333 316.125 64.8854 314 66.0312C311.875 67.1771 309.583 67.75 307.125 67.75C305.146 67.75 303.25 67.3646 301.438 66.5938C299.646 65.8229 298.094 64.7812 296.781 63.4688C295.469 62.1562 294.427 60.6042 293.656 58.8125C292.885 57 292.5 55.1042 292.5 53.125C292.5 51.1458 292.885 49.2604 293.656 47.4688C294.427 45.6562 295.469 44.0938 296.781 42.7812C298.094 41.4688 299.646 40.4271 301.438 39.6562C303.25 38.8854 305.146 38.5 307.125 38.5C309.604 38.5 311.906 39.0833 314.031 40.25C316.156 41.3958 317.885 42.9583 319.219 44.9375ZM322.938 42.375L321.062 43.5938C319.521 41.3438 317.521 39.5625 315.062 38.25C312.625 36.9167 309.979 36.25 307.125 36.25C304.062 36.25 301.24 37.0104 298.656 38.5312C296.073 40.0312 294.021 42.0729 292.5 44.6562C291 47.2396 290.25 50.0625 290.25 53.125C290.25 56.1875 291 59.0104 292.5 61.5938C294.021 64.1771 296.073 66.2292 298.656 67.75C301.24 69.25 304.062 70 307.125 70C309.979 70 312.635 69.3333 315.094 68C317.552 66.6667 319.552 64.8646 321.094 62.5938L322.938 63.875C321.188 66.4583 318.917 68.5 316.125 70C313.354 71.5 310.354 72.25 307.125 72.25C303.667 72.25 300.469 71.3958 297.531 69.6875C294.594 67.9792 292.271 65.6562 290.562 62.7188C288.854 59.7812 288 56.5833 288 53.125C288 49.6667 288.854 46.4688 290.562 43.5312C292.271 40.5938 294.594 38.2708 297.531 36.5625C300.469 34.8542 303.667 34 307.125 34C310.354 34 313.354 34.75 316.125 36.25C318.917 37.75 321.188 39.7917 322.938 42.375ZM326.688 39.875L324.812 41.0938C322.854 38.2188 320.312 35.9479 317.188 34.2812C314.083 32.5938 310.729 31.75 307.125 31.75C304.229 31.75 301.458 32.3125 298.812 33.4375C296.167 34.5625 293.885 36.0833 291.969 38C290.073 39.8958 288.562 42.1667 287.438 44.8125C286.312 47.4583 285.75 50.2292 285.75 53.125C285.75 56.0208 286.312 58.7917 287.438 61.4375C288.562 64.0833 290.073 66.3646 291.969 68.2812C293.885 70.1771 296.167 71.6875 298.812 72.8125C301.458 73.9375 304.229 74.5 307.125 74.5C310.75 74.5 314.115 73.6562 317.219 71.9688C320.323 70.2812 322.854 68 324.812 65.125L326.625 66.4688C324.458 69.6354 321.656 72.1458 318.219 74C314.802 75.8333 311.104 76.75 307.125 76.75C302.854 76.75 298.906 75.6979 295.281 73.5938C291.656 71.4688 288.781 68.5938 286.656 64.9688C284.552 61.3438 283.5 57.3958 283.5 53.125C283.5 48.8542 284.552 44.9062 286.656 41.2812C288.781 37.6562 291.656 34.7917 295.281 32.6875C298.906 30.5625 302.854 29.5 307.125 29.5C311.125 29.5 314.844 30.4375 318.281 32.3125C321.719 34.1667 324.521 36.6875 326.688 39.875ZM330.375 37.3125L328.5 38.5312C326.125 35.0521 323.052 32.3021 319.281 30.2812C315.531 28.2604 311.479 27.25 307.125 27.25C303.625 27.25 300.271 27.9375 297.062 29.3125C293.875 30.6667 291.125 32.5 288.812 34.8125C286.5 37.125 284.656 39.8854 283.281 43.0938C281.927 46.2812 281.25 49.625 281.25 53.125C281.25 56.625 281.927 59.9792 283.281 63.1875C284.656 66.375 286.5 69.125 288.812 71.4375C291.125 73.75 293.875 75.5938 297.062 76.9688C300.271 78.3229 303.625 79 307.125 79C311.479 79 315.542 77.9792 319.312 75.9375C323.083 73.8958 326.156 71.1354 328.531 67.6562L330.344 69.0312C327.76 72.7812 324.427 75.7604 320.344 77.9688C316.26 80.1562 311.854 81.25 307.125 81.25C303.312 81.25 299.667 80.5 296.188 79C292.729 77.5208 289.74 75.5312 287.219 73.0312C284.719 70.5104 282.719 67.5208 281.219 64.0625C279.74 60.5833 279 56.9375 279 53.125C279 49.3125 279.74 45.6771 281.219 42.2188C282.719 38.7396 284.719 35.75 287.219 33.25C289.74 30.7292 292.729 28.7292 296.188 27.25C299.667 25.75 303.312 25 307.125 25C311.875 25 316.292 26.1042 320.375 28.3125C324.458 30.5208 327.792 33.5208 330.375 37.3125ZM334.719 27.25H336.969V79H334.719V27.25ZM348.219 27.25H350.469V67.75H368.469V70H350.469V72.25H368.469V74.5H350.469V76.75H368.469V79H348.219V27.25ZM343.719 27.25H345.969V79H343.719V27.25ZM339.219 27.25H341.469V79H339.219V27.25ZM386.969 27.25H389.219V79H386.969V27.25ZM382.469 27.25H384.719V79H382.469V27.25ZM377.969 27.25H380.219V79H377.969V27.25ZM373.469 27.25H375.719V79H373.469V27.25ZM429.531 60.9688C429.531 60.1562 429.281 59.6146 428.781 59.3438C428.302 59.0729 427.594 58.9375 426.656 58.9375H412.156V56.6875H426.656C430.073 56.6875 431.781 58.1146 431.781 60.9688C431.781 62.5729 431.312 63.7292 430.375 64.4375C429.438 65.1458 428.198 65.5 426.656 65.5H412.156V63.25H426.656C428.573 63.25 429.531 62.4896 429.531 60.9688ZM410.906 79H408.656V40.75H426.656C428.073 40.75 429.281 41.1875 430.281 42.0625C431.281 42.9167 431.781 43.9896 431.781 45.2812C431.781 46.9896 431.312 48.2292 430.375 49C429.438 49.75 428.198 50.125 426.656 50.125H412.156V47.875H426.656C428.573 47.875 429.531 47.0104 429.531 45.2812C429.531 44.5729 429.26 44.0208 428.719 43.625C428.177 43.2083 427.49 43 426.656 43H410.906V79ZM412.156 52.375H426.656C428.719 52.375 430.458 51.7604 431.875 50.5312C433.312 49.2812 434.031 47.5312 434.031 45.2812C434.031 43.4688 433.281 41.8854 431.781 40.5312C430.302 39.1771 428.594 38.5 426.656 38.5H406.406V79H404.156V36.25H426.656C429.219 36.25 431.458 37.1562 433.375 38.9688C435.312 40.7604 436.281 42.8646 436.281 45.2812C436.281 47.1771 435.833 48.8333 434.938 50.25C434.062 51.6667 432.875 52.7604 431.375 53.5312C434.646 54.6979 436.281 57.0729 436.281 60.6562C436.281 63.4896 435.344 65.7604 433.469 67.4688C431.594 69.1562 429.323 70 426.656 70H412.156V67.75H426.656C428.719 67.75 430.458 67.1354 431.875 65.9062C433.312 64.6562 434.031 62.9062 434.031 60.6562C434.031 59.1354 433.49 57.7917 432.406 56.625C431.323 55.4583 429.729 54.7812 427.625 54.5938C427.417 54.6146 427.094 54.625 426.656 54.625H412.156V52.375ZM440.781 45.2812C440.781 48.1979 439.75 50.8333 437.688 53.1875C439.75 55.4792 440.781 57.9688 440.781 60.6562C440.781 63.2604 440.125 65.6354 438.812 67.7812C437.521 69.9062 435.792 71.5625 433.625 72.75C431.479 73.9167 429.156 74.5 426.656 74.5H412.156V72.25H426.656C429.906 72.25 432.698 71.1667 435.031 69C437.365 66.8125 438.531 64.0312 438.531 60.6562C438.531 59.4479 438.219 58.1146 437.594 56.6562C436.99 55.1771 436.146 54.0521 435.062 53.2812C437.375 51.1146 438.531 48.4479 438.531 45.2812C438.531 42.2396 437.344 39.6042 434.969 37.375C432.594 35.125 429.823 34 426.656 34H401.906V79H399.656V31.75H426.656C429.135 31.75 431.458 32.3646 433.625 33.5938C435.812 34.8021 437.552 36.4583 438.844 38.5625C440.135 40.6458 440.781 42.8854 440.781 45.2812ZM440.25 53.3125C442.104 50.8333 443.031 48.1562 443.031 45.2812C443.031 42.4688 442.281 39.8542 440.781 37.4375C439.302 35 437.302 33.0729 434.781 31.6562C432.26 30.2188 429.552 29.5 426.656 29.5H397.406V79H395.156V27.25H426.656C429.948 27.25 433.021 28.0625 435.875 29.6875C438.75 31.3125 441.031 33.5208 442.719 36.3125C444.427 39.0833 445.281 42.0729 445.281 45.2812C445.281 48.3438 444.417 51.0312 442.688 53.3438C444.417 55.7396 445.281 58.1771 445.281 60.6562C445.281 63.4479 444.781 66.0104 443.781 68.3438C442.781 70.6562 441.427 72.5833 439.719 74.125C438.031 75.6667 436.062 76.8646 433.812 77.7188C431.562 78.5729 429.177 79 426.656 79H412.156V76.75H426.656C428.844 76.75 430.938 76.3438 432.938 75.5312C434.938 74.6979 436.677 73.5729 438.156 72.1562C439.635 70.7396 440.812 69.0312 441.688 67.0312C442.583 65.0312 443.031 62.9062 443.031 60.6562C443.031 59.6562 442.792 58.4583 442.312 57.0625C441.854 55.6458 441.167 54.3958 440.25 53.3125Z" fill="#1DB954"/>
</g>
<defs>
<clipPath id="clip0_103_47">
<rect width="460" height="113" fill="white"/>
</clipPath>
<clipPath id="clip1_103_47">
<rect width="81" height="81" fill="white" transform="translate(10 16)"/>
</clipPath>
</defs>
</svg>
